<svg class="svg-icon" style="width: 1.0771484375em;height: 1em;vertical-align: middle;fill: currentColor;overflow: hidden;" viewBox="0 0 1103 1024" version="1.1" xmlns="http://www.w3.org/2000/svg"><path d="M277.841753 984.988711H260.463174c-0.00431 0 7.861738 1.728376 17.378579 0z m313.323018-0.00862c-46.088577 0.00862-50.12289-38.23546-50.39874-48.071253v-58.997516H310.853294v56.682959c0 37.157919-18.434569 47.804022-33.011541 50.377189" fill="#F0F0FF" /><path d="M268.311982 1003.112948c-7.874669 0-16.969113-1.543038-21.641331-7.784155l-20.671543-27.580736h50.165991c5.823031-1.189605 17.456162-5.370464 17.456162-33.153776v-73.923613h264.394043v75.983871c0.827551 25.684264 18.46474 31.089209 33.145157 31.089208h0.00862l0.008621 34.481308h-0.021551c-48.558301 0-66.773051-34.920944-67.617844-64.824858l-0.00431-0.487048v-41.756863H328.093948v39.442305c0 53.161555-32.929648 64.803307-47.179048 67.341993v0.01724c-2.443863 0.439637-7.241075 1.155124-12.602918 1.155124z" fill="#6E6E96" /><path d="M22.658529 792.880418V285.785384c0-34.645093 28.343635-62.988728 62.988728-62.988728h680.320501c34.645093 0 62.988728 28.347945 62.988728 62.988728v507.095034" fill="#9F9FBD" /><path d="M828.965106 742.485988v72.440916c0 34.649404-28.352255 62.993038-62.988728 62.993038H85.651567c-34.653714 0-62.988728-28.352255-62.988728-62.993038v-72.440916h806.302267z" fill="#F0F0FF" /><path d="M765.976378 895.160596H85.651567c-44.239517 0-80.229382-35.994175-80.229381-80.233692v-89.68157h840.783574v89.68157c0 44.239517-35.989864 80.233692-80.229382 80.233692zM39.903493 759.726641v55.200263c0 25.231697 20.524998 45.752384 45.748074 45.752384h680.324811c25.227386 0 45.748074-20.524998 45.748075-45.752384v-55.200263H39.903493z" fill="#6E6E96" /><path d="M846.197139 792.880418h-34.481307V285.785384c0-25.227386-20.524998-45.748074-45.748074-45.748074H85.647257c-25.227386 0-45.748074 20.524998-45.748074 45.748074v507.095034h-34.481308V285.785384c0-44.239517 35.989864-80.229382 80.229382-80.229381h680.320501c44.239517 0 80.229382 35.989864 80.229381 80.229381v507.095034z" fill="#6E6E96" /><path d="M22.658529 711.832106h806.302267v17.796664H22.658529zM310.853294 877.919942h229.912737v40.205204H310.853294z" fill="#6E6E96" opacity=".15" /><path d="M608.586452 1002.229365h-367.872446a17.240654 17.240654 0 0 1 0-34.481308h367.872446a17.240654 17.240654 0 0 1 0 34.481308z" fill="#6E6E96" /><path d="M765.976378 830.615899H85.651567c-34.653714 0-62.988728-28.343635-62.988728-62.984418v42.032713c0 34.649404 28.335014 62.993038 62.988728 62.993039h680.324811c34.636473 0 62.993038-28.335014 62.993038-62.993039v-42.032713c-0.00431 34.649404-28.360875 62.984418-62.993038 62.984418z" fill="#6E6E96" opacity=".15" /><path d="M78.772546 286.112957H766.734967v397.565161H78.772546z" fill="#A2C8F2" /><path d="M324.430309 678.928318l434.507572-392.815361v126.865349l-288.181835 265.950012z" fill="#DEEFFF" opacity=".31" /><path d="M758.937881 412.978306l-288.181835 265.950012h288.181835z" fill="#FFFFFF" opacity=".31" /><path d="M766.734967 700.918772H78.772546a17.240654 17.240654 0 0 1-17.240653-17.240654V286.112957a17.240654 17.240654 0 0 1 17.240653-17.240654H766.734967a17.240654 17.240654 0 0 1 17.240654 17.240654v397.565161a17.240654 17.240654 0 0 1-17.240654 17.240654z m-670.721767-34.481307H749.494313V303.35361H96.0132v363.083855z" fill="#6E6E96" /><path d="M482.320215 751.412336H424.973491a17.240654 17.240654 0 0 1 0-34.481307h57.346724a17.240654 17.240654 0 0 1 0 34.481307z" fill="#6E6E96" /><path d="M409.254325 923.715428V484.009799c0-31.66677 15.762268-35.830388 35.033008-35.830388H1012.715992c19.26643 0 35.041628 4.180858 35.041629 35.830388v439.705629" fill="#B9BCC9" /><path d="M1012.720302 447.442373H444.291643c-19.270741 0-35.033008 4.163618-35.033008 35.830388v28.589314c0-31.66677 15.762268-35.830388 35.033008-35.830389h568.428659c19.26643 0 35.041628 4.180858 35.041629 35.830389v-28.589314c0-31.64953-15.775198-35.830388-35.041629-35.830388z" fill="#FFFFFF" opacity=".15" /><path d="M1060.619148 919.944035h-34.481307V484.001179c0-14.275261 0-18.585425-17.805285-18.585425H448.67939c-13.671838 0-17.800975 0-17.800975 18.585425v435.942856h-34.481308V484.001179c0-53.066732 39.351792-53.066732 52.282283-53.066732h559.657476c12.93049 0 52.286592 0 52.286592 53.066732v435.942856z" fill="#6E6E96" /><path d="M1061.666518 910.759077h-249.446397v24.00761h-176.087415v-24.00761H397.353964a20.072431 20.072431 0 0 0-20.012089 20.012089v52.023672h704.332421v-52.023672a20.072431 20.072431 0 0 0-20.007778-20.012089z" fill="#B9BCC9" /><path d="M1061.666518 902.177542h-249.446397v24.0033h-176.087415v-24.0033H397.353964a20.068121 20.068121 0 0 0-20.012089 20.007778v31.451263a20.072431 20.072431 0 0 1 20.012089-20.016399h238.778742v24.01623h176.087415v-24.01623h249.446397a20.072431 20.072431 0 0 1 20.016399 20.016399v-31.451263a20.076741 20.076741 0 0 0-20.016399-20.007778z" fill="#FFFFFF" opacity=".15" /><path d="M462.484843 506.099386h528.908771v357.209102H462.484843z" fill="#8CBDF2" /><path d="M632.783709 846.541953l349.041342-327.012098v95.965789l-231.503186 231.046309z" fill="#DEEFFF" opacity=".31" /><path d="M981.825051 615.495644l-231.503186 231.046309h231.503186z" fill="#FFFFFF" opacity=".31" /><path d="M991.393614 880.549142H462.484843a17.240654 17.240654 0 0 1-17.240654-17.240654V506.099386a17.240654 17.240654 0 0 1 17.240654-17.240653h528.908771a17.240654 17.240654 0 0 1 17.240653 17.240653v357.209102a17.240654 17.240654 0 0 1-17.240653 17.240654z m-511.668118-34.481307h494.427464V523.34004H479.725496v322.727795z" fill="#6E6E96" /><path d="M462.484843 506.099386h519.344518v37.468251H462.484843zM377.341875 957.817441h704.332421v24.977397H377.341875z" fill="#6E6E96" opacity=".15" /><path d="M1081.674296 1000.035492H377.341875a17.240654 17.240654 0 0 1-17.240654-17.240654v-52.023672c0-20.542239 16.710503-37.252742 37.252743-37.252743h238.778742a17.240654 17.240654 0 0 1 17.240653 17.240654v6.766957h141.606109v-6.766957a17.240654 17.240654 0 0 1 17.240653-17.240654h249.446397c20.542239 0 37.252742 16.710503 37.252742 37.252743v52.023672a17.249274 17.249274 0 0 1-17.244964 17.240654z m-687.091767-34.481308h669.851114v-34.783018a2.844708 2.844708 0 0 0-2.771435-2.771435h-232.205743v6.766956a17.240654 17.240654 0 0 1-17.240654 17.240654h-176.087415a17.240654 17.240654 0 0 1-17.240654-17.240654v-6.766956H397.353964a2.844708 2.844708 0 0 0-2.771435 2.771435v34.783018z" fill="#6E6E96" /></svg>